# xmcd CD database file
#
# Track frame offsets:
#	150
#	17464
#	37172
#	55017
#	74950
#	90791
#	111539
#	126780
#	142783
#	160826
#	175634
#	187607
#	206606
#
# Disc length: 2989 seconds
#
# Revision: 0
# Processed by: cddbd v1.5.2PL0 Copyright (c) Steve Scherf et al.
# Submitted via: CDex 1.51
#
DISCID=a70bab0d
DTITLE=jos slijpen workshop nov/dec 2oo8 - jos slijpen workshop nov/dec 2oo8
DYEAR=2008
DGENRE=Country
TTITLE0=Amame
TTITLE1=Baby Believe
TTITLE2=Being Lonely
TTITLE3=Cuckoo
TTITLE4=Eyes Wide Open
TTITLE5=Hardest Thing To Do
TTITLE6=Out Of Your Mind
TTITLE7=Party Popper
TTITLE8=Quality Shoe
TTITLE9=Simbolo
TTITLE10=Simbolo (Country)
TTITLE11=Tumbling Rush (Country)
TTITLE12=Tumbling Rush
EXTD=YEAR: 2008
EXTT0=
EXTT1=
EXTT2=
EXTT3=
EXTT4=
EXTT5=
EXTT6=
EXTT7=
EXTT8=
EXTT9=
EXTT10=
EXTT11=
EXTT12=
PLAYORDER=
